<?xml version="1.0" encoding="iso-8859-1"?>
<!-- Generator: Adobe Illustrator 19.0.0, SVG Export Plug-In . SVG Version: 6.00 Build 0)  -->
<svg fill="#acb8bf" version="1.1" id="Capa_1" xmlns="http://www.w3.org/2000/svg" xmlns:xlink="http://www.w3.org/1999/xlink" x="0px" y="0px"
	 viewBox="0 0 490 490" style="enable-background:new 0 0 490 490;" xml:space="preserve">
<g id="Business_1_Bold_1_">
	<path d="M15.312,381.542h214.375v54.865H126.328v30.625h237.344v-30.625H260.313v-54.865h214.375
		c8.422,0,15.313-6.891,15.313-15.312V38.281c0-8.422-6.891-15.312-15.313-15.312H15.312C6.891,22.969,0,29.859,0,38.281v327.948
		C0,374.651,6.891,381.542,15.312,381.542z M30.625,53.594h428.75v297.323H30.625V53.594z"/>
	<polygon points="379.765,219.612 364.499,158.76 343.582,158.76 327.641,218.617 314.503,158.76 302.054,158.76 296.496,158.76
		284.338,158.76 270.955,219.612 255.688,158.76 234.771,158.76 218.846,218.617 205.708,158.76 193.244,158.76 187.701,158.76
		175.527,158.76 162.159,219.612 146.893,158.76 125.976,158.76 110.036,218.617 96.897,158.76 78.89,158.76 99.7,245.888
		118.779,245.888 136.067,180.749 153.431,245.888 172.082,245.888 190.441,170.275 208.495,245.888 227.574,245.888
		244.877,180.749 262.227,245.888 280.892,245.888 299.252,170.275 317.306,245.888 336.385,245.888 353.673,180.749
		371.022,245.888 389.688,245.888 410.85,158.76 393.148,158.76 	"/>
</g>
<g>
</g>
<g>
</g>
<g>
</g>
<g>
</g>
<g>
</g>
<g>
</g>
<g>
</g>
<g>
</g>
<g>
</g>
<g>
</g>
<g>
</g>
<g>
</g>
<g>
</g>
<g>
</g>
<g>
</g>
</svg>
