<?xml version="1.0" encoding="iso-8859-1"?>
<!-- Generator: Adobe Illustrator 16.0.0, SVG Export Plug-In . SVG Version: 6.00 Build 0)  -->
<!DOCTYPE svg PUBLIC "-//W3C//DTD SVG 1.1//EN" "http://www.w3.org/Graphics/SVG/1.1/DTD/svg11.dtd">
<svg version="1.1" id="Capa_1" xmlns="http://www.w3.org/2000/svg" xmlns:xlink="http://www.w3.org/1999/xlink" x="0px" y="0px"
	 width="571.226px" height="571.226px" viewBox="0 0 571.226 571.226" style="enable-background:new 0 0 571.226 571.226;"
	 xml:space="preserve" fill=' #ffb300'>

<g>
	<g>
		<path d="M412.316,26.297C412.316,11.8,400.525,0,386.019,0H185.207C170.7,0,158.91,11.8,158.91,26.297v518.632
			c0,14.497,11.791,26.297,26.297,26.297h200.812c14.506,0,26.297-11.8,26.297-26.297V26.297z M397.972,544.938
			c0,6.588-5.365,11.953-11.953,11.953H185.207c-6.588,0-11.953-5.365-11.953-11.953V26.297c0-6.588,5.365-11.953,11.953-11.953
			h200.812c6.588,0,11.953,5.365,11.953,11.953V544.938z"/>
		<path d="M257.174,366.646h56.887c1.979,0,3.586-1.606,3.586-3.586v-57.309c0-1.979-1.606-3.586-3.586-3.586h-56.887
			c-1.979,0-3.586,1.607-3.586,3.586v57.309C253.588,365.039,255.194,366.646,257.174,366.646z M270.322,309.337h30.59
			c5.278,0,9.562,4.284,9.562,9.562v31.012c0,5.278-4.284,9.562-9.562,9.562h-30.59c-5.278,0-9.562-4.284-9.562-9.562v-31.012
			C260.76,313.621,265.034,309.337,270.322,309.337z"/>
		<path d="M377.708,424.891c-0.439-1.932-2.371-3.146-4.293-2.706c-0.258,0.058-15.941,3.557-37.6,6.406
			c-5.24,0.688-9.486-2.591-9.486-7.21v-8.348c0-1.979-1.605-3.586-3.586-3.586h-74.252c-1.979,0-3.586,1.606-3.586,3.586
			c0,0,0,3.748,0,8.367c0,4.618-4.246,7.898-9.486,7.21c-21.659-2.85-37.342-6.35-37.6-6.407c-1.913-0.411-3.854,0.775-4.293,2.707
			s0.774,3.844,2.706,4.283c0.268,0.058,16.658,3.72,39.178,6.646c5.24,0.679,9.496,5.422,9.496,10.7v9.104
			c0,5.278-4.246,9.094-9.486,8.405c-21.659-2.85-37.342-6.358-37.6-6.416c-1.903-0.44-3.844,0.774-4.293,2.706
			c-0.44,1.932,0.774,3.854,2.706,4.294c0.268,0.057,16.658,3.729,39.178,6.646c5.24,0.679,9.496,5.422,9.496,10.7v9.085
			c0,5.278-4.246,9.094-9.486,8.405c-21.659-2.85-37.342-6.35-37.6-6.407c-1.913-0.43-3.854,0.774-4.293,2.706
			s0.774,3.845,2.706,4.284c0.268,0.058,16.658,3.72,39.178,6.646c5.24,0.679,9.496,5.422,9.496,10.7v12.059
			c0,1.979,1.606,3.586,3.586,3.586h74.252c1.98,0,3.586-1.606,3.586-3.586v-12.059c0-5.278,4.256-10.021,9.496-10.7
			c22.52-2.917,38.91-6.579,39.178-6.646c1.932-0.439,3.146-2.361,2.705-4.293c-0.439-1.923-2.371-3.137-4.293-2.707
			c-0.258,0.058-15.941,3.558-37.6,6.407c-5.24,0.688-9.486-3.127-9.486-8.405v-9.094c0-5.279,4.256-10.021,9.496-10.701
			c22.52-2.926,38.91-6.588,39.178-6.646c1.932-0.44,3.146-2.362,2.705-4.294c-0.439-1.932-2.371-3.155-4.293-2.706
			c-0.258,0.058-15.949,3.558-37.6,6.417c-5.24,0.688-9.486-3.127-9.486-8.406v-9.104c0-5.278,4.256-10.021,9.496-10.7
			c22.52-2.926,38.91-6.579,39.178-6.646C376.935,428.744,378.15,426.832,377.708,424.891z M309.595,525.88H261.64
			c-5.278,0-9.562-3.872-9.562-8.653s4.265-8.243,9.534-7.86c7.86,0.563,15.95,0.908,24.002,0.908s16.142-0.345,24.002-0.908
			c5.27-0.373,9.533,3.079,9.533,7.86C319.158,522.007,314.875,525.88,309.595,525.88z M309.625,502.175
			c-7.852,0.573-15.951,0.928-24.012,0.928c-8.061,0-16.151-0.354-24.011-0.928c-5.269-0.383-9.524-5.087-9.524-10.366v-9.104
			c0-5.278,4.265-9.151,9.534-8.769c7.86,0.564,15.95,0.908,24.002,0.908s16.142-0.344,24.002-0.908
			c5.27-0.373,9.533,3.49,9.533,8.769v9.113C319.158,497.088,314.893,501.792,309.625,502.175z M309.625,466.736
			c-7.852,0.573-15.951,0.928-24.012,0.928c-8.061,0-16.151-0.354-24.011-0.928c-5.269-0.383-9.524-5.088-9.524-10.366v-9.113
			c0-5.278,4.265-9.15,9.534-8.769c7.86,0.564,15.95,0.908,24.002,0.908s16.142-0.344,24.002-0.908
			c5.27-0.373,9.533,3.49,9.533,8.769v9.113C319.158,461.648,314.893,466.354,309.625,466.736z M309.625,431.298
			c-7.852,0.573-15.951,0.927-24.012,0.927c-8.061,0-16.151-0.354-24.011-0.927c-5.269-0.383-9.524-3.911-9.524-7.746
			s4.284-6.942,9.562-6.942h47.956c5.279,0,9.562,3.107,9.562,6.942S314.893,430.915,309.625,431.298z"/>
		<path d="M208.759,324.179h24.041c1.979,0,3.586-1.606,3.586-3.586s-1.607-3.586-3.586-3.586h-24.041
			c-1.979,0-3.586,1.606-3.586,3.586S206.779,324.179,208.759,324.179z"/>
		<path d="M339.623,324.179h24.039c1.98,0,3.586-1.606,3.586-3.586s-1.605-3.586-3.586-3.586h-24.039
			c-1.98,0-3.586,1.606-3.586,3.586S337.642,324.179,339.623,324.179z"/>
		<path d="M381.753,28.047H189.471c-1.979,0-3.586,1.606-3.586,3.586v348.515c0,1.979,1.607,3.586,3.586,3.586h192.282
			c1.98,0,3.586-1.606,3.586-3.586V31.633C385.339,29.653,383.734,28.047,381.753,28.047z M368.605,376.562H202.62
			c-5.278,0-9.562-4.284-9.562-9.562v-72.254c0-5.278,4.284-9.562,9.562-9.562h165.985c5.279,0,9.562,4.284,9.562,9.562v72.254
			C378.167,372.277,373.894,376.562,368.605,376.562z M368.605,278.011H202.62c-5.278,0-9.562-4.284-9.562-9.562V44.781
			c0-5.278,4.284-9.562,9.562-9.562h165.985c5.279,0,9.562,4.284,9.562,9.562v223.667
			C378.167,273.727,373.894,278.011,368.605,278.011z"/>
	</g>
</g>
<g>
</g>
<g>
</g>
<g>
</g>
<g>
</g>
<g>
</g>
<g>
</g>
<g>
</g>
<g>
</g>
<g>
</g>
<g>
</g>
<g>
</g>
<g>
</g>
<g>
</g>
<g>
</g>
<g>
</g>
</svg>
